<svg width="84" height="84" viewBox="0 0 84 84" fill="none" xmlns="http://www.w3.org/2000/svg">
    <path d="M64.2222 19.7778H73.1111C78.0203 19.7778 82 23.7575 82 28.6667V55.3333C82 60.2425 78.0203 64.2222 73.1111 64.2222H64.2222V82L46.4444 64.2222H28.6667C26.2121 64.2222 23.9898 63.2273 22.3813 61.6187M22.3813 61.6187L37.5556 46.4444H55.3333C60.2425 46.4444 64.2222 42.4648 64.2222 37.5556V10.8889C64.2222 5.97969 60.2425 2 55.3333 2H10.8889C5.97969 2 2 5.97969 2 10.8889V37.5556C2 42.4648 5.97969 46.4444 10.8889 46.4444H19.7778V64.2222L22.3813 61.6187Z" stroke="#FAFAFA" stroke-width="3" stroke-linecap="round" stroke-linejoin="round"/>
</svg>